<svg xmlns="http://www.w3.org/2000/svg" width="280" height="340" viewBox="0 0 231 280"><path d="m230.9 123.8-5.1-13.4s0-.1-.1-.1c-.1-.4-.5-.8-.9-.8h-53.4l-54.2-96.7V4.2h-.1C117 1.8 115 0 112.6 0s-4.4 1.8-4.7 4.2h-.1V13l-54.1 96.6H1c-.5 0-1 .4-1 1v163.2c0 .4.3.8.7.9l.1.1 12.7 5.2c.1 0 .2.1.4.1H230c.5 0 1-.4 1-1V124.2c0-.1 0-.3-.1-.4zM109.8 4.8c0-1.6 1.3-2.8 2.8-2.8 1.6 0 2.8 1.3 2.8 2.8 0 1.6-1.3 2.8-2.8 2.8-1.6 0-2.8-1.2-2.8-2.8zm0 3.8c.8.6 1.8 1 2.8 1 1.1 0 2-.4 2.8-1v9.1c0 1.2-1 2.3-2.3 2.3H112c-1.2 0-2.3-1-2.3-2.3V8.6zm-2 8.3v.8c0 2.3 1.9 4.2 4.2 4.2h1.1c2.3 0 4.2-1.9 4.2-4.2v-.9l51.9 92.8H55.9l51.9-92.7zM1.9 111.5h50.7l-2.3 4.1c-.4-.1-.7-.2-1.1-.2-2.4 0-4.4 2-4.4 4.4s2 4.4 4.4 4.4c2.4 0 4.4-2 4.4-4.4 0-1.4-.6-2.6-1.6-3.4l2.8-5h115.5l2.9 5.1c-.9.8-1.5 2-1.5 3.3 0 2.4 2 4.4 4.4 4.4 2.4 0 4.4-2 4.4-4.4s-2-4.4-4.4-4.4c-.4 0-.9.1-1.3.2l-2.3-4.2h51.3V138H1.9v-26.5zm46.8 9c.2.1.3.1.5.1.3 0 .7-.2.8-.5l1-1.8c.4.4.6 1 .6 1.6 0 1.4-1.1 2.5-2.5 2.5s-2.5-1.1-2.5-2.5 1.1-2.5 2.5-2.5h.1l-1 1.7c-.1.5.1 1.1.5 1.4zm128.2-1.4-1-1.7h.3c1.4 0 2.5 1.1 2.5 2.5s-1.1 2.5-2.5 2.5-2.5-1.1-2.5-2.5c0-.6.2-1.1.5-1.5l.9 1.7c.2.3.5.5.8.5.2 0 .3 0 .5-.1.6-.3.7-.9.5-1.4zm-36.8 88.8-.4-6.3 20.9-33h10v31.2h5.7v8h-5.7v10.8h-9.9v-10.8h-20.6zm-11-19.1v9.2c0 6.9-1.4 12.2-4.3 15.9-2.9 3.7-7.1 5.5-12.6 5.5s-9.6-1.8-12.5-5.4c-2.9-3.6-4.4-8.8-4.4-15.5v-9.2c0-7 1.5-12.3 4.4-15.9 2.9-3.6 7.1-5.4 12.5-5.4 5.5 0 9.6 1.8 12.5 5.4 2.9 3.5 4.4 8.6 4.4 15.4zm-80.5 19.1-.4-6.3 20.9-33h10v31.2h5.7v8h-5.7v10.8h-9.9v-10.8H48.6zm-46.7 41h221.9v23.9H1.9v-23.9zm227.2 29.2h-215l-8.2-3.3h219c.5 0 1-.4 1-1v-24.3l3.2 6.2v22.4zm0-133.8-3.2-5.8v-22.6l3.2 8.5v19.9z"/><path d="m160.6 182.2-.7 1.1-10.4 16.5h11.1zm-91.4 0-.7 1.1-10.4 16.5h11.1zm43-6.3c-2.3 0-4.1.9-5.2 2.7s-1.7 4.6-1.8 8.5v12.2c0 4.1.6 7.1 1.7 9.1s2.9 3 5.3 3 4.2-1 5.3-2.9 1.6-4.8 1.7-8.7v-11.9c0-4.2-.6-7.2-1.7-9.1-1.2-1.9-2.9-2.9-5.3-2.9zm100.2-54.7c-2 0-3.6 1.6-3.6 3.6s1.6 3.6 3.6 3.6 3.6-1.6 3.6-3.6-1.6-3.6-3.6-3.6zm0 5.2c-.9 0-1.6-.7-1.6-1.6s.7-1.6 1.6-1.6 1.6.7 1.6 1.6-.7 1.6-1.6 1.6zm-11-5.2c-2 0-3.6 1.6-3.6 3.6s1.6 3.6 3.6 3.6 3.6-1.6 3.6-3.6-1.6-3.6-3.6-3.6zm0 5.2c-.9 0-1.6-.7-1.6-1.6s.7-1.6 1.6-1.6 1.6.7 1.6 1.6-.7 1.6-1.6 1.6zm-181.1-6.5h-9.7c-.5 0-1 .4-1 1 0 .5.4 1 1 1h9.7c.5 0 1-.4 1-1-.1-.6-.5-1-1-1zm0 3.9h-9.7c-.5 0-1 .4-1 1 0 .5.4 1 1 1h9.7c.5 0 1-.4 1-1-.1-.6-.5-1-1-1zm0 3.9h-9.7c-.5 0-1 .4-1 1s.4 1 1 1h9.7c.5 0 1-.4 1-1s-.5-1-1-1z"/></svg>